<svg width="355" height="346" viewBox="0 0 355 346" fill="none" xmlns="http://www.w3.org/2000/svg">
<g clip-path="url(#clip0_313_91)">
<path d="M333.987 95.4972C330.664 89.4845 326.976 83.6815 322.946 78.1207C320.122 74.2193 317.137 70.4481 313.993 66.8072H313.985C308.296 60.2159 302.109 54.0742 295.478 48.4365C294.121 47.2807 292.746 46.1486 291.352 45.0401C278.771 35.0028 264.819 26.8274 249.923 20.7635L250.056 42.5929L251.481 291.435H127.938L120.99 43.0624L121.507 21.5817C60.938 47.1286 18.4093 107.194 18.4093 177.224C18.398 191.679 20.2369 206.075 23.8808 220.06C25.4199 225.972 27.2833 231.794 29.4625 237.5C30.2492 239.571 31.0791 241.624 31.9523 243.658C32.3732 244.648 32.802 245.63 33.2465 246.608C33.8168 247.886 34.4108 249.161 35.0205 250.419C35.4925 251.409 35.9776 252.393 36.4759 253.37C37.1171 254.652 37.7792 255.923 38.4623 257.184C38.9894 258.174 39.5322 259.157 40.0829 260.135C48.9674 275.895 60.3125 290.125 73.6869 302.284C77.4985 305.752 81.4648 309.039 85.5858 312.146C114.745 334.119 150.231 346 186.705 346C223.178 346 258.665 334.119 287.823 312.146C290.066 310.458 292.262 308.713 294.412 306.912C295.84 305.72 297.244 304.507 298.625 303.271C298.991 302.943 299.357 302.616 299.718 302.284C312.049 291.075 322.661 278.1 331.21 263.78C334.35 258.53 337.197 253.109 339.738 247.543C340.411 246.076 341.062 244.595 341.693 243.101C344.596 236.253 347.037 229.217 349.001 222.041C349.304 220.932 349.597 219.82 349.879 218.703V218.699C349.926 218.506 349.977 218.309 350.024 218.116C350.315 216.94 350.594 215.757 350.862 214.573V214.569C351.727 210.755 352.458 206.894 353.053 202.987C353.128 202.486 353.202 201.986 353.273 201.485C353.301 201.303 353.328 201.122 353.348 200.94V200.936C353.773 197.918 354.118 194.878 354.382 191.816C354.792 187.007 354.997 182.143 355 177.224C355.045 148.633 347.812 120.503 333.987 95.4972Z" fill="#F2F2F2"/>
<path d="M317.459 279.105C327.421 265.607 331.252 246.594 323.503 231.708C316.236 248.452 303.298 262.079 286.977 270.177C280.671 273.277 273.336 276.067 270.417 282.473C268.601 286.458 268.947 291.165 270.407 295.295C271.867 299.425 274.35 303.1 276.807 306.724L276.936 307.81C292.404 301.379 307.498 292.603 317.459 279.105Z" fill="#E6E6E6"/>
<path d="M323.173 231.828C322.726 245.72 317.926 259.118 309.455 270.118C307.673 272.519 305.525 274.623 303.09 276.353C300.664 277.961 297.852 278.889 294.947 279.039C292.242 279.233 289.452 279.118 286.841 279.968C285.51 280.424 284.291 281.156 283.263 282.117C282.235 283.078 281.421 284.246 280.874 285.544C279.428 288.745 279.216 292.275 279.127 295.735C279.029 299.576 278.987 303.567 277.181 307.059C276.962 307.482 277.629 307.798 277.848 307.376C280.991 301.301 278.95 294.196 280.823 287.809C281.697 284.829 283.472 282.095 286.439 280.901C289.033 279.857 291.91 279.973 294.651 279.8C297.487 279.695 300.254 278.896 302.711 277.472C305.226 275.872 307.451 273.854 309.291 271.506C313.518 266.284 316.9 260.429 319.313 254.154C322.106 247.008 323.661 239.435 323.908 231.763C323.923 231.288 323.188 231.356 323.173 231.828Z" fill="white"/>
<path d="M312.391 266.737C314.424 267.912 316.808 268.324 319.116 267.899C321.424 267.474 323.506 266.24 324.991 264.418C325.29 264.048 324.731 263.564 324.432 263.935C323.052 265.634 321.112 266.783 318.962 267.175C316.812 267.566 314.593 267.174 312.706 266.068C312.296 265.829 311.983 266.499 312.391 266.737Z" fill="white"/>
<path d="M296.332 279.121C295.045 274.487 295.547 269.536 297.738 265.256C297.955 264.832 297.288 264.516 297.07 264.94C294.799 269.398 294.287 274.551 295.637 279.37C295.766 279.83 296.46 279.578 296.332 279.121Z" fill="white"/>
<path d="M321.129 247.042C320.247 246.752 319.452 246.247 318.813 245.572C318.175 244.897 317.714 244.074 317.471 243.177C317.348 242.716 316.653 242.968 316.776 243.426C317.049 244.416 317.559 245.325 318.263 246.072C318.967 246.819 319.842 247.382 320.813 247.711C320.902 247.75 321.002 247.753 321.093 247.72C321.185 247.688 321.26 247.621 321.304 247.535C321.346 247.446 321.35 247.344 321.317 247.252C321.285 247.16 321.217 247.084 321.129 247.042Z" fill="white"/>
<path d="M268.053 219.861C268.122 220.151 268.191 220.441 268.255 220.736C269.159 224.638 269.746 228.607 270.008 232.604C270.034 232.913 270.055 233.226 270.071 233.535C270.602 243.171 269.344 252.823 266.362 261.999C265.172 265.65 263.707 269.204 261.979 272.631C259.592 277.365 256.629 282.306 255.961 287.404C255.885 287.935 255.843 288.47 255.833 289.006L275.605 307.884C275.671 307.905 275.734 307.93 275.8 307.95L276.555 308.74C276.657 308.57 276.758 308.391 276.86 308.22C276.919 308.121 276.974 308.019 277.033 307.92C277.071 307.853 277.109 307.785 277.147 307.727C277.16 307.705 277.173 307.682 277.181 307.664C277.219 307.606 277.249 307.548 277.282 307.494C277.853 306.495 278.417 305.49 278.975 304.479C278.98 304.474 278.98 304.474 278.98 304.466C283.214 296.753 286.843 288.618 289.126 280.19C289.195 279.936 289.268 279.678 289.327 279.416C290.335 275.611 291.032 271.73 291.409 267.811C291.609 265.665 291.7 263.51 291.683 261.354C291.627 255.784 290.698 250.258 288.929 244.977C285.403 234.452 278.559 225.174 268.802 220.232C268.553 220.105 268.307 219.983 268.053 219.861Z" fill="#E6E6E6"/>
<path d="M267.859 220.156C275.843 231.517 280.054 245.113 279.894 259.011C279.913 262.004 279.461 264.981 278.555 267.832C277.583 270.581 275.895 273.019 273.666 274.893C271.622 276.682 269.326 278.274 267.751 280.53C266.963 281.697 266.429 283.017 266.185 284.406C265.941 285.794 265.992 287.218 266.335 288.585C267.102 292.013 269.052 294.96 271.058 297.776C273.286 300.902 275.649 304.114 276.303 307.993C276.382 308.463 277.104 308.312 277.025 307.843C275.888 301.094 269.993 296.654 267.654 290.424C266.563 287.517 266.339 284.262 267.991 281.517C269.435 279.117 271.802 277.473 273.887 275.68C276.088 273.884 277.817 271.575 278.924 268.955C279.971 266.159 280.537 263.204 280.596 260.218C280.836 253.497 280.021 246.78 278.181 240.312C276.121 232.92 272.816 225.935 268.407 219.66C268.134 219.272 267.588 219.77 267.859 220.156Z" fill="white"/>
<path d="M280.208 254.539C282.537 254.249 284.688 253.139 286.275 251.406C287.863 249.673 288.785 247.431 288.876 245.079C288.893 244.603 288.157 244.554 288.14 245.031C288.059 247.221 287.2 249.31 285.718 250.92C284.236 252.531 282.229 253.557 280.059 253.814C279.587 253.871 279.739 254.595 280.208 254.539Z" fill="white"/>
<path d="M274.821 274.123C271.011 271.2 268.44 266.944 267.62 262.204C267.539 261.734 266.816 261.885 266.897 262.354C267.759 267.285 270.444 271.708 274.416 274.741C274.795 275.03 275.198 274.41 274.821 274.123Z" fill="white"/>
<path d="M275.361 233.538C274.483 233.838 273.545 233.915 272.63 233.762C271.715 233.609 270.852 233.23 270.12 232.66C269.745 232.366 269.342 232.987 269.714 233.278C270.527 233.904 271.48 234.322 272.49 234.493C273.501 234.665 274.538 234.585 275.511 234.262C275.605 234.24 275.687 234.182 275.74 234.101C275.793 234.019 275.814 233.921 275.797 233.825C275.777 233.729 275.72 233.645 275.638 233.591C275.556 233.538 275.457 233.518 275.361 233.538Z" fill="white"/>
<path d="M7.85667 203.507C-0.977812 189.241 -3.2554 169.979 5.67394 155.774C11.56 173.055 23.3516 187.691 38.9622 197.093C44.9957 200.697 52.0806 204.075 54.4705 210.697C55.9576 214.818 55.2315 219.48 53.4418 223.478C51.6518 227.476 48.8791 230.936 46.1366 234.348L45.9196 235.42C31.0241 227.749 16.6912 217.772 7.85667 203.507Z" fill="#E6E6E6"/>
<path d="M5.99368 155.92C5.31276 169.803 9.01097 183.548 16.563 195.202C18.1444 197.74 20.1148 200.012 22.4017 201.935C24.6897 203.736 27.4169 204.889 30.2997 205.275C32.9805 205.69 35.7705 205.802 38.3042 206.863C39.5931 207.425 40.7489 208.254 41.6959 209.296C42.6429 210.337 43.3596 211.568 43.7991 212.907C44.9807 216.214 44.9068 219.75 44.7147 223.206C44.5014 227.042 44.2192 231.024 45.7369 234.651C45.9208 235.091 45.23 235.351 45.0464 234.912C42.4057 228.601 45.0158 221.686 43.6663 215.168C43.0366 212.127 41.4891 209.257 38.629 207.825C36.128 206.573 33.251 206.454 30.5331 206.059C27.7152 205.723 25.0222 204.701 22.6891 203.081C20.312 201.281 18.2576 199.089 16.6139 196.598C12.8242 191.05 9.92798 184.938 8.03138 178.487C5.82608 171.137 4.89081 163.463 5.26603 155.796C5.28944 155.322 6.01695 155.449 5.99368 155.92Z" fill="white"/>
<path d="M13.9111 191.593C11.7892 192.598 9.38012 192.814 7.11406 192.203C4.84799 191.591 2.87249 190.192 1.54037 188.254C1.27217 187.861 1.86846 187.425 2.13702 187.818C3.37417 189.625 5.21448 190.928 7.3258 191.493C9.43712 192.059 11.6804 191.848 13.6507 190.901C14.0791 190.695 14.337 191.389 13.9111 191.593Z" fill="white"/>
<path d="M28.9129 205.245C30.5714 200.731 30.4724 195.755 28.6357 191.311C28.4533 190.871 29.1441 190.61 29.3262 191.05C31.229 195.678 31.3215 200.856 29.5853 205.55C29.4195 205.997 28.748 205.69 28.9129 205.245Z" fill="white"/>
<path d="M6.79803 171.251C7.69984 171.034 8.5337 170.595 9.22471 169.974C9.91572 169.354 10.4423 168.571 10.757 167.696C10.9171 167.247 11.5884 167.555 11.4294 168.001C11.0772 168.966 10.4946 169.83 9.73267 170.517C8.97073 171.205 8.05256 171.694 7.05841 171.943C6.96667 171.975 6.86646 171.97 6.77814 171.93C6.68983 171.89 6.62004 171.818 6.58295 171.728C6.54894 171.636 6.55244 171.534 6.59272 171.445C6.63299 171.356 6.70678 171.286 6.79803 171.251Z" fill="white"/>
<path d="M61.9003 148.486C61.8083 148.769 61.7163 149.052 61.6281 149.341C60.411 153.156 59.505 157.064 58.9191 161.027C58.8689 161.332 58.8227 161.643 58.7814 161.949C57.4712 171.511 57.9425 181.233 60.1713 190.622C61.0617 194.357 62.2341 198.019 63.6784 201.576C65.6734 206.488 68.2262 211.655 68.4791 216.79C68.5115 217.326 68.5108 217.863 68.4769 218.398L47.2407 235.602C47.1728 235.617 47.1087 235.637 47.0406 235.652L46.224 236.378C46.1367 236.199 46.0501 236.013 45.9628 235.834C45.9117 235.731 45.8654 235.624 45.8144 235.521C45.7818 235.451 45.7495 235.381 45.7161 235.32C45.7052 235.296 45.6946 235.273 45.6875 235.254C45.6542 235.193 45.6297 235.133 45.6003 235.076C45.1128 234.034 44.6318 232.986 44.1573 231.933C44.1534 231.928 44.1534 231.928 44.1542 231.92C40.5589 223.888 37.6007 215.484 36.0084 206.897C35.9606 206.639 35.9086 206.376 35.8705 206.11C35.1741 202.235 34.7947 198.31 34.7361 194.373C34.7109 192.218 34.7945 190.062 34.9866 187.915C35.4937 182.368 36.8676 176.936 39.058 171.817C43.426 161.614 50.9993 152.925 61.1237 148.794C61.3828 148.688 61.6373 148.586 61.9003 148.486Z" fill="#E6E6E6"/>
<path d="M62.0703 148.795C53.1922 159.468 47.8932 172.676 46.926 186.541C46.665 189.522 46.8742 192.526 47.5458 195.442C48.2917 198.261 49.7767 200.829 51.8467 202.878C53.7384 204.827 55.8985 206.602 57.2848 208.978C57.9764 210.205 58.4015 211.565 58.5323 212.969C58.6631 214.372 58.4966 215.787 58.0437 217.122C57.0014 220.476 54.8195 223.255 52.5917 225.898C50.118 228.832 47.5024 231.841 46.5364 235.654C46.4193 236.116 45.7114 235.907 45.8283 235.445C47.5089 228.812 53.7441 224.867 56.5798 218.847C57.903 216.039 58.3902 212.813 56.9663 209.943C55.7212 207.433 53.4952 205.601 51.5628 203.644C49.5143 201.675 47.9777 199.233 47.0874 196.531C46.2698 193.658 45.9456 190.668 46.1286 187.686C46.4339 180.968 47.7906 174.339 50.149 168.044C52.801 160.843 56.6616 154.151 61.5638 148.256C61.8674 147.892 62.3719 148.432 62.0703 148.795Z" fill="white"/>
<path d="M46.9754 182.058C44.6777 181.58 42.6245 180.298 41.1823 178.441C39.7402 176.584 39.0031 174.274 39.1026 171.923C39.1075 171.827 39.1494 171.737 39.2193 171.671C39.2893 171.606 39.3818 171.57 39.4775 171.572C39.5732 171.573 39.6646 171.612 39.7323 171.68C39.8001 171.748 39.8389 171.839 39.8407 171.935C39.744 174.124 40.4308 176.276 41.7772 178.002C43.1237 179.728 45.041 180.915 47.1832 181.348C47.6486 181.443 47.4381 182.152 46.9754 182.058Z" fill="white"/>
<path d="M50.7576 202.016C54.792 199.413 57.6998 195.381 58.9014 190.724C59.02 190.262 59.728 190.471 59.6095 190.932C58.3501 195.776 55.3155 199.966 51.1114 202.666C50.7105 202.923 50.3589 202.272 50.7576 202.016Z" fill="white"/>
<path d="M53.5086 161.521C54.3591 161.892 55.2882 162.045 56.2125 161.967C57.1367 161.889 58.0271 161.582 58.8037 161.073C59.2011 160.811 59.5523 161.463 59.1574 161.723C58.2968 162.281 57.313 162.619 56.2921 162.707C55.2712 162.796 54.2442 162.633 53.3007 162.231C53.2087 162.201 53.1316 162.137 53.0851 162.051C53.0386 161.966 53.0263 161.866 53.0506 161.772C53.0786 161.678 53.1424 161.599 53.2282 161.552C53.3139 161.505 53.4147 161.494 53.5086 161.521Z" fill="white"/>
<path d="M171.853 57.8927C184.766 57.8927 195.234 47.3946 195.234 34.4444C195.234 21.4943 184.766 10.9962 171.853 10.9962C158.939 10.9962 148.471 21.4943 148.471 34.4444C148.471 47.3946 158.939 57.8927 171.853 57.8927Z" fill="#FF6584"/>
<path d="M243.442 33.2208C241.335 30.9888 239.111 28.8714 236.779 26.8777C232.224 23.0039 227.181 19.7101 221.56 17.6351C219.444 16.8514 217.257 16.2741 215.03 15.9113C214.763 15.8679 214.499 15.8245 214.232 15.789C214.212 15.787 214.192 15.787 214.173 15.789C214.131 15.7773 214.089 15.7694 214.047 15.7653C213.5 15.6943 212.953 15.6391 212.403 15.5996C209.437 15.4019 206.459 15.6708 203.576 16.3965C201.903 16.8197 200.271 17.3899 198.698 18.1006C197.123 18.8742 195.595 19.7423 194.123 20.7002C193.333 21.1815 192.519 21.6226 191.685 22.0217C189.248 23.1795 186.669 24.0073 184.014 24.4832C182.222 24.8057 180.407 24.9851 178.586 25.0197C177.005 25.0513 175.514 25.1065 174.015 25.6785C172.416 26.2811 170.979 27.2507 169.82 28.5096C168.661 29.7686 167.812 31.282 167.34 32.9289C167.303 33.0751 167.314 33.2295 167.37 33.3693C167.427 33.5092 167.527 33.6271 167.655 33.706C168.06 33.9979 168.453 34.3293 168.882 34.5896C169.26 34.7628 169.664 34.8734 170.078 34.917C170.754 35.059 171.432 35.1971 172.112 35.3312C174.609 35.8283 177.118 36.2688 179.636 36.6527C184.703 37.4219 189.798 37.9637 194.922 38.278C194.953 38.2825 194.985 38.2852 195.016 38.2858C200.805 38.6362 206.608 38.6928 212.403 38.4555C213.28 38.42 214.153 38.3766 215.03 38.3253C218.684 38.1202 222.329 37.7967 225.965 37.3549C229.328 36.9446 232.678 36.4358 236.015 35.8283C238.399 35.3944 240.774 34.9105 243.139 34.3766C243.254 34.3425 243.358 34.2793 243.441 34.1931C243.525 34.1068 243.585 34.0005 243.615 33.8843C243.646 33.7681 243.646 33.646 243.615 33.5297C243.585 33.4135 243.525 33.3071 243.442 33.2208Z" fill="#E6E6E6"/>
<path d="M194.843 64.4868C191.458 60.8554 187.729 57.5631 183.708 54.6565C182.374 53.7177 181.001 52.8341 179.589 52.0254C177.858 51.0231 176.06 50.1414 174.208 49.3863C173.795 49.2167 173.378 49.055 172.961 48.9011C170.592 48.0213 168.135 47.4023 165.633 47.055C165.613 47.0511 165.594 47.055 165.574 47.0511C165.535 47.0432 165.491 47.0353 165.452 47.0274C164.239 46.8697 163.017 46.7945 161.794 46.8025C160.917 46.8025 160.036 46.8499 159.162 46.9367C157.752 47.0761 156.353 47.3186 154.977 47.6625C154.297 47.8321 153.62 48.0294 152.955 48.2542C151.986 48.5742 151.034 48.9455 150.104 49.3666C150.088 49.3745 150.076 49.3785 150.06 49.3863C148.499 50.1525 146.985 51.0141 145.529 51.9662C145.497 51.9859 145.462 52.0056 145.431 52.0254C143.776 53.0178 142.026 53.8399 140.207 54.479C138.645 55.0267 137.043 55.4514 135.416 55.7492C133.624 56.0725 131.808 56.2506 129.988 56.2818C128.406 56.3133 126.916 56.3685 125.421 56.9445C123.821 57.547 122.384 58.5165 121.224 59.7754C120.064 61.0343 119.214 62.5478 118.742 64.1949C118.705 64.3412 118.716 64.4952 118.773 64.6349C118.829 64.7746 118.929 64.8926 119.056 64.972C119.462 65.2639 119.859 65.5913 120.284 65.8517C120.662 66.0262 121.066 66.1368 121.479 66.1791C122.156 66.3211 122.833 66.4631 123.513 66.5972C126.011 67.0943 128.52 67.5335 131.042 67.9148C134.499 68.4394 137.971 68.8589 141.458 69.1732C143.11 69.327 144.763 69.4532 146.418 69.5519C150.662 69.8082 154.91 69.9082 159.162 69.8516C160.04 69.8398 160.917 69.8201 161.794 69.7925C167.002 69.6386 172.194 69.2468 177.371 68.6169C183.141 67.9169 188.871 66.9228 194.541 65.6387C194.655 65.605 194.759 65.5421 194.843 65.4562C194.926 65.3704 194.986 65.2644 195.016 65.1485C195.047 65.0326 195.047 64.9108 195.016 64.7949C194.986 64.6789 194.927 64.5728 194.843 64.4868Z" fill="#E6E6E6"/>
<path d="M136.563 1.55678L157.162 287.021L115.964 290.688V5.1887C120.873 1.34318 127.92 0.741541 136.563 1.55678Z" fill="#CCCCCC"/>
<path d="M238.241 1.55678L217.643 287.021L258.84 290.688V5.1887C253.931 1.34318 246.884 0.741541 238.241 1.55678Z" fill="#CCCCCC"/>
<path d="M259.809 5.31327C258.531 2.17 255.813 -1.52588e-05 252.67 -1.52588e-05H121.695C117.325 -1.52588e-05 113.773 4.20498 113.773 9.37857V293.107C113.735 295.732 114.714 298.269 116.503 300.185C117.439 301.171 118.625 301.884 119.933 302.248C120.507 302.407 121.1 302.487 121.695 302.486H252.67C253.265 302.487 253.858 302.407 254.432 302.248C257.956 301.298 260.592 297.563 260.592 293.107V9.37858C260.595 7.98547 260.33 6.60487 259.809 5.31327ZM257.964 293.107C257.964 296.562 255.588 299.375 252.67 299.375H121.695C119.276 299.375 117.227 297.442 116.602 294.811C116.468 294.253 116.401 293.681 116.401 293.107V9.37858C116.401 5.92331 118.777 3.11533 121.695 3.11533H252.67C253.207 3.11491 253.74 3.21112 254.243 3.39939C256.395 4.19103 257.964 6.5706 257.964 9.37858V293.107Z" fill="#CCCCCC"/>
<path d="M259.278 86.2436H115.088V88.8807H259.278V86.2436Z" fill="#CCCCCC"/>
<path d="M259.278 31.8062H115.088V34.4433H259.278V31.8062Z" fill="#CCCCCC"/>
<path d="M259.278 130.195H115.088V132.833H259.278V130.195Z" fill="#CCCCCC"/>
<path d="M161.879 1.18342H159.249V167.555H161.879V1.18342Z" fill="#CCCCCC"/>
<path d="M215.116 1.18342H212.487V167.555H215.116V1.18342Z" fill="#CCCCCC"/>
<path d="M275.712 286.004H103.035C99.898 286.008 96.8906 287.26 94.6725 289.484C92.4543 291.708 91.2066 294.724 91.2029 297.87C91.2013 299.383 91.4911 300.882 92.0564 302.284C92.9349 304.484 94.45 306.37 96.4066 307.699C98.3633 309.028 100.672 309.739 103.035 309.74H275.712C277.778 309.739 279.807 309.196 281.599 308.165C283.39 307.134 284.881 305.651 285.924 303.862C286.22 303.357 286.478 302.829 286.695 302.284C287.26 300.882 287.55 299.383 287.548 297.87C287.544 294.724 286.295 291.708 284.076 289.484C281.857 287.259 278.849 286.008 275.712 286.004Z" fill="#CCCCCC"/>
<path d="M259.278 161.401H115.964V170.192H259.278V161.401Z" fill="#CCCCCC"/>
<path d="M186.306 158.764H188.936C190.215 158.764 191.441 159.274 192.345 160.18C193.249 161.087 193.757 162.317 193.757 163.599H181.485C181.485 162.964 181.61 162.335 181.852 161.749C182.095 161.162 182.45 160.629 182.897 160.18C183.345 159.731 183.877 159.375 184.461 159.132C185.046 158.889 185.673 158.764 186.306 158.764Z" fill="#CCCCCC"/>
<path d="M190.149 186.192C205.149 186.192 217.309 173.998 217.309 158.955C217.309 143.912 205.149 131.717 190.149 131.717C175.149 131.717 162.989 143.912 162.989 158.955C162.989 173.998 175.149 186.192 190.149 186.192Z" fill="#FFB8B8"/>
<path d="M159.852 132.752C160.057 129.624 162.119 126.423 168.673 124.751C168.673 124.751 179.919 110.329 195.202 117.892C195.202 117.892 202.611 116.614 208.105 124.323C208.105 124.323 213.552 121.101 215.85 126.811C215.85 126.811 222.238 138.459 219.886 150.34C217.534 162.221 216.33 163.703 216.33 163.703C216.33 163.703 219.328 139.128 202.061 140.832C184.795 142.536 170.893 136.447 166.983 149.78C163.736 160.851 164.145 166.6 164.145 166.6C164.145 166.6 153.287 155.556 156.979 146.86C158.867 142.412 159.535 137.576 159.852 132.752Z" fill="#2F2E41"/>
<path d="M116.291 307.807H266.52C265.516 296.315 264.86 252.385 264.86 249.494C264.86 236.742 254.455 222.825 254.455 222.825L250.73 220.761L219.628 211.029L211.579 200.544C210.736 199.443 209.65 198.553 208.406 197.944C207.162 197.335 205.794 197.023 204.41 197.034L178.984 197.225C176.746 197.242 174.596 198.097 172.954 199.621L157.209 214.269L134.116 225.328L134.077 225.289L133.836 225.469L130.409 227.944L128.204 229.542C128.204 229.542 122.421 236.5 117.799 257.369C117.104 260.508 116.616 301.141 116.291 307.807Z" fill="#9370DB"/>
<path d="M301.292 302.284C300.93 302.616 300.564 302.943 300.198 303.271C298.814 304.505 297.409 305.719 295.986 306.912C293.834 308.71 291.638 310.455 289.397 312.146H87.1592C83.0408 309.046 79.0746 305.758 75.2604 302.284H301.292Z" fill="#CCCCCC"/>
<path d="M227.161 304.651H152.818L154.391 297.156H225.587L227.161 304.651Z" fill="#2F2E41"/>
<path d="M294.42 272.304H275.075C274.638 272.303 274.207 272.398 273.81 272.582C273.414 272.766 273.063 273.035 272.782 273.369C272.512 273.317 272.238 273.291 271.964 273.291C271.361 273.29 270.763 273.409 270.206 273.64C269.649 273.871 269.143 274.209 268.716 274.637C268.29 275.064 267.951 275.572 267.72 276.13C267.489 276.689 267.371 277.287 267.371 277.892C267.371 278.497 267.489 279.096 267.72 279.654C267.951 280.213 268.29 280.72 268.716 281.147C269.143 281.575 269.649 281.914 270.206 282.145C270.763 282.376 271.361 282.494 271.964 282.494C272.656 282.494 273.34 282.334 273.962 282.028L274.284 286.004L275.567 301.72C275.628 301.917 275.709 302.106 275.81 302.284C276.07 302.762 276.452 303.16 276.918 303.438C277.384 303.715 277.916 303.862 278.458 303.862H291.037C291.579 303.862 292.112 303.715 292.578 303.437C293.044 303.16 293.428 302.761 293.688 302.284C293.787 302.105 293.867 301.916 293.928 301.72L297.311 276.229C297.45 275.776 297.481 275.296 297.402 274.828C297.322 274.36 297.134 273.917 296.853 273.535C296.572 273.154 296.205 272.843 295.782 272.63C295.36 272.416 294.893 272.304 294.42 272.304ZM271.964 281.18C271.095 281.179 270.262 280.832 269.648 280.216C269.034 279.599 268.689 278.763 268.689 277.892C268.689 277.021 269.034 276.185 269.648 275.569C270.262 274.952 271.095 274.605 271.964 274.604C272.022 274.604 272.078 274.62 272.137 274.624C272.007 275.153 272.023 275.708 272.184 276.229L273.568 280.742C273.081 281.026 272.527 281.177 271.964 281.18Z" fill="#3F3D56"/>
<path d="M250.726 188.901H128.268C127.216 188.902 126.208 189.322 125.464 190.068C124.72 190.814 124.301 191.826 124.299 192.881V275.752C124.3 276.807 124.719 277.819 125.463 278.565C126.207 279.312 127.216 279.731 128.268 279.732H250.726C251.779 279.731 252.788 279.312 253.532 278.565C254.276 277.819 254.694 276.807 254.695 275.752V192.881C254.694 191.826 254.275 190.814 253.531 190.068C252.787 189.322 251.779 188.902 250.726 188.901Z" fill="#3F3D56"/>
<path d="M203.288 255.303H174.641C174.235 255.303 173.847 255.465 173.561 255.753C173.274 256.041 173.114 256.431 173.114 256.837V302.221H204.819V256.837C204.819 256.636 204.779 256.436 204.702 256.25C204.625 256.063 204.513 255.894 204.371 255.752C204.228 255.609 204.06 255.496 203.874 255.419C203.688 255.342 203.489 255.302 203.288 255.303ZM189.061 281.089C188.165 281.085 187.307 280.726 186.673 280.091C186.04 279.456 185.682 278.595 185.678 277.697V272.462C185.679 271.563 186.036 270.701 186.67 270.066C187.304 269.43 188.164 269.074 189.061 269.074C189.957 269.074 190.817 269.43 191.452 270.066C192.086 270.701 192.443 271.563 192.444 272.462V277.697C192.439 278.595 192.082 279.456 191.448 280.091C190.815 280.726 189.957 281.085 189.061 281.089Z" fill="#2F2E41"/>
<path d="M173.016 300.77V305.148C173.016 305.375 173.107 305.593 173.267 305.753C173.426 305.914 173.643 306.004 173.87 306.004H204.063C204.289 306.003 204.506 305.913 204.666 305.752C204.825 305.592 204.916 305.375 204.917 305.148V300.77H173.016Z" fill="#3F3D56"/>
<path d="M248.122 274.886C249.19 274.886 250.056 274.018 250.056 272.947C250.056 271.876 249.19 271.008 248.122 271.008C247.055 271.008 246.189 271.876 246.189 272.947C246.189 274.018 247.055 274.886 248.122 274.886Z" fill="#2F2E41"/>
<path d="M143.727 270.135C143.638 270.135 143.55 270.152 143.468 270.186C143.386 270.221 143.311 270.271 143.249 270.334C143.186 270.397 143.136 270.471 143.102 270.554C143.068 270.636 143.051 270.724 143.051 270.813V274.304C143.051 274.484 143.122 274.656 143.249 274.783C143.376 274.91 143.548 274.981 143.727 274.981C143.906 274.981 144.078 274.91 144.205 274.783C144.332 274.656 144.403 274.484 144.404 274.304V270.813C144.404 270.724 144.386 270.636 144.352 270.554C144.318 270.471 144.268 270.397 144.206 270.334C144.143 270.271 144.068 270.221 143.986 270.186C143.904 270.152 143.816 270.135 143.727 270.135Z" fill="#2F2E41"/>
<path d="M147.401 270.135C147.312 270.135 147.224 270.152 147.142 270.186C147.06 270.221 146.985 270.271 146.923 270.334C146.86 270.397 146.81 270.471 146.776 270.554C146.742 270.636 146.724 270.724 146.724 270.813V274.304C146.724 274.484 146.796 274.657 146.923 274.784C147.049 274.911 147.222 274.983 147.401 274.983C147.58 274.983 147.753 274.911 147.879 274.784C148.006 274.657 148.078 274.484 148.078 274.304V270.813C148.078 270.724 148.06 270.636 148.026 270.554C147.992 270.471 147.942 270.397 147.879 270.334C147.817 270.271 147.742 270.221 147.66 270.186C147.578 270.152 147.49 270.135 147.401 270.135Z" fill="#2F2E41"/>
<path d="M151.075 270.135C150.986 270.135 150.898 270.152 150.816 270.186C150.734 270.221 150.659 270.271 150.596 270.334C150.534 270.397 150.484 270.471 150.45 270.554C150.416 270.636 150.398 270.724 150.398 270.813V274.304C150.399 274.484 150.47 274.656 150.597 274.783C150.724 274.91 150.896 274.981 151.075 274.981C151.254 274.981 151.426 274.91 151.553 274.783C151.68 274.656 151.751 274.484 151.751 274.304V270.813C151.751 270.724 151.734 270.636 151.7 270.554C151.666 270.471 151.616 270.397 151.553 270.334C151.49 270.271 151.416 270.221 151.334 270.186C151.252 270.152 151.164 270.135 151.075 270.135Z" fill="#2F2E41"/>
<path d="M154.749 270.135C154.66 270.135 154.572 270.152 154.49 270.186C154.408 270.221 154.333 270.271 154.27 270.334C154.208 270.397 154.158 270.471 154.124 270.554C154.09 270.636 154.072 270.724 154.072 270.813V274.304C154.073 274.484 154.144 274.656 154.271 274.783C154.398 274.91 154.57 274.981 154.749 274.981C154.928 274.981 155.1 274.91 155.227 274.783C155.353 274.656 155.425 274.484 155.425 274.304V270.813C155.425 270.724 155.408 270.636 155.374 270.554C155.34 270.471 155.29 270.397 155.227 270.334C155.164 270.271 155.09 270.221 155.008 270.186C154.926 270.152 154.838 270.135 154.749 270.135Z" fill="#2F2E41"/>
<path d="M157.68 302.679C163.328 302.679 167.907 298.087 167.907 292.423C167.907 286.758 163.328 282.166 157.68 282.166C152.032 282.166 147.453 286.758 147.453 292.423C147.453 298.087 152.032 302.679 157.68 302.679Z" fill="#FFB8B8"/>
<path d="M229.128 304.651C234.776 304.651 239.355 300.059 239.355 294.395C239.355 288.731 234.776 284.139 229.128 284.139C223.479 284.139 218.9 288.731 218.9 294.395C218.9 300.059 223.479 304.651 229.128 304.651Z" fill="#FFB8B8"/>
<path d="M334.69 170.598C333.679 168.922 332.482 167.132 330.606 166.585C328.434 165.951 326.203 167.21 324.311 168.453C318.651 172.169 313.201 176.196 307.985 180.516L307.991 180.581C312.052 180.3 315.422 191.128 319.483 190.848C322.417 190.645 326.142 179.304 328.735 177.912C329.719 177.384 330.678 176.679 331.793 176.63C333.178 176.568 334.386 177.539 335.335 178.552C340.949 184.548 342.574 193.717 348.873 198.985C344.901 189.161 340.159 179.669 334.69 170.598Z" fill="#3F3D56"/>
<path d="M345.497 185.161C348.459 190.526 351.6 195.784 354.921 200.936V200.94C354.902 201.122 354.874 201.303 354.847 201.484C354.445 200.869 354.048 200.251 353.655 199.63C350.673 194.94 347.84 190.16 345.154 185.291C343.88 182.976 342.637 180.642 341.425 178.289C340.489 176.467 339.573 174.634 338.676 172.79C338.42 172.262 338.172 171.733 337.925 171.201C337.342 169.954 336.768 168.7 336.155 167.469C335.454 166.065 334.601 164.597 333.315 163.654C332.729 163.207 332.03 162.936 331.297 162.873C330.264 162.88 329.253 163.17 328.374 163.714C321.72 167.221 315.509 171.516 309.875 176.506C304.233 181.477 299.19 187.092 294.849 193.236C294.715 193.425 294.4 193.244 294.534 193.051C295.065 192.301 295.6 191.563 296.151 190.83C302.976 181.728 311.344 173.901 320.873 167.706C322.474 166.664 324.106 165.672 325.77 164.727C326.608 164.25 327.45 163.781 328.307 163.339C329.128 162.856 330.049 162.57 330.998 162.503C334.263 162.451 335.954 166.159 337.114 168.652C337.476 169.437 337.845 170.221 338.22 171.003C339.632 173.962 341.099 176.897 342.621 179.808C343.557 181.603 344.516 183.387 345.497 185.161Z" fill="#3F3D56"/>
<path d="M309.554 174.675C309.364 174.463 309.176 174.251 308.985 174.039C307.48 172.37 305.864 170.72 303.797 169.762C302.812 169.292 301.736 169.042 300.645 169.03C299.518 169.061 298.408 169.303 297.371 169.746C296.878 169.943 296.396 170.167 295.921 170.406C295.379 170.68 294.846 170.972 294.316 171.266C293.32 171.818 292.338 172.395 291.368 172.996C289.439 174.192 287.57 175.479 285.762 176.857C284.824 177.572 283.906 178.31 283.008 179.071C282.172 179.779 281.353 180.505 280.551 181.251C280.379 181.409 280.123 181.153 280.294 180.994C280.506 180.796 280.72 180.6 280.933 180.406C281.537 179.859 282.151 179.322 282.774 178.795C283.911 177.833 285.077 176.908 286.273 176.021C288.132 174.64 290.055 173.352 292.042 172.159C293.035 171.563 294.042 170.992 295.062 170.446C295.37 170.281 295.682 170.12 295.997 169.967C296.713 169.605 297.456 169.302 298.22 169.06C299.302 168.709 300.447 168.596 301.577 168.729C302.668 168.888 303.719 169.253 304.675 169.804C306.704 170.941 308.278 172.7 309.81 174.417C309.964 174.591 309.71 174.849 309.554 174.675Z" fill="#3F3D56"/>
<path d="M294.703 182.707C294.187 182.733 293.677 182.586 293.253 182.291C292.13 181.437 292.159 179.388 293.343 176.025C293.665 175.114 294.17 174.278 294.827 173.571C295.483 172.863 296.278 172.298 297.161 171.91C297.988 171.539 298.883 171.344 299.789 171.339C300.696 171.334 301.593 171.517 302.425 171.878C302.57 171.941 302.713 172.009 302.854 172.082C303.817 172.623 304.719 173.265 305.546 173.997C306.248 174.609 306.998 175.164 307.787 175.658L308.051 175.813L307.801 175.989C301.429 180.488 297.109 182.707 294.703 182.707Z" fill="#3F3D56"/>
<path d="M319.205 155.935C317.11 155.934 315.08 155.205 313.461 153.871C311.842 152.536 310.735 150.68 310.329 148.619C308.577 148.975 306.97 149.843 305.709 151.114C304.449 152.385 303.592 154.002 303.247 155.761C302.902 157.52 303.085 159.342 303.771 160.997C304.458 162.652 305.618 164.066 307.105 165.06C308.592 166.055 310.34 166.585 312.127 166.585C313.915 166.584 315.662 166.053 317.149 165.057C318.635 164.062 319.794 162.647 320.48 160.991C321.165 159.336 321.347 157.514 321.001 155.755C320.41 155.875 319.808 155.935 319.205 155.935Z" fill="#3F3D56"/>
<path opacity="0.74" d="M77.0275 170.53C84.4838 170.53 90.5283 164.468 90.5283 156.991C90.5283 149.513 84.4838 143.451 77.0275 143.451C69.5712 143.451 63.5267 149.513 63.5267 156.991C63.5267 164.468 69.5712 170.53 77.0275 170.53Z" fill="#3F3D56"/>
<path opacity="0.74" d="M90.5283 170.53C97.9846 170.53 104.029 164.468 104.029 156.991C104.029 149.513 97.9846 143.451 90.5283 143.451C83.072 143.451 77.0275 149.513 77.0275 156.991C77.0275 164.468 83.072 170.53 90.5283 170.53Z" fill="#9370DB"/>
<path opacity="0.74" d="M83.8921 159.739C91.3484 159.739 97.393 153.678 97.393 146.2C97.393 138.722 91.3484 132.661 83.8921 132.661C76.4358 132.661 70.3913 138.722 70.3913 146.2C70.3913 153.678 76.4358 159.739 83.8921 159.739Z" fill="#FF6584"/>
<path d="M119.195 142.32L84.5169 153.246L84.7527 153.999L119.431 143.073L119.195 142.32Z" fill="#3F3D56"/>
<path d="M119.416 144.148C120.285 144.148 120.989 143.442 120.989 142.57C120.989 141.699 120.285 140.992 119.416 140.992C118.547 140.992 117.843 141.699 117.843 142.57C117.843 143.442 118.547 144.148 119.416 144.148Z" fill="#3F3D56"/>
<path d="M344.545 213.571C346.85 215.2 349.064 216.861 351.597 218.115C351.55 218.309 351.499 218.506 351.452 218.699C351.141 218.553 350.838 218.4 350.535 218.242C347.967 216.893 345.756 215.058 343.345 213.465C342.15 212.636 340.844 211.98 339.467 211.516C338.031 211.083 336.53 210.907 335.033 210.995C328.791 211.303 323.441 215.039 317.639 216.92C314.799 217.843 311.779 218.336 308.817 217.756C305.855 217.177 303.223 215.599 300.607 214.171C298.027 212.759 295.215 211.338 292.201 211.338C289.747 211.342 287.167 212.329 285.853 214.506C285.812 214.571 285.747 214.618 285.673 214.636C285.599 214.654 285.52 214.642 285.454 214.603C285.388 214.564 285.34 214.501 285.319 214.427C285.299 214.353 285.308 214.274 285.345 214.206C285.639 213.71 286.001 213.257 286.419 212.861C288.134 211.232 290.656 210.589 292.972 210.778C295.97 211.023 298.704 212.443 301.296 213.871C304.045 215.386 306.862 217.015 310.04 217.346C313.179 217.678 316.286 216.853 319.197 215.745C324.834 213.595 330.396 210.013 336.666 210.411C339.624 210.601 342.157 211.887 344.545 213.571Z" fill="#3F3D56"/>
<path d="M97.819 99.4854V100.286C97.5548 100.234 97.286 100.207 97.0166 100.207H92.9021V109.067C92.9014 110.379 92.3815 111.637 91.4566 112.564C90.5317 113.492 89.2775 114.013 87.9695 114.014H81.8883V115.379C81.8883 115.926 81.9966 116.468 82.2069 116.972H81.3651C81.1892 116.46 81.1002 115.921 81.1016 115.379V114.014H77.7581V113.225H81.1016V104.365C81.1024 103.053 81.6223 101.796 82.5472 100.868C83.4721 99.9405 84.7262 99.4191 86.0342 99.4183H92.1154V98.0376H92.9021V99.4183H97.0166C97.2855 99.4186 97.5538 99.441 97.819 99.4854Z" fill="#9370DB"/>
<path d="M87.9695 93.1067H76.9871C75.6791 93.1075 74.4249 93.6289 73.5001 94.5564C72.5752 95.4839 72.0553 96.7417 72.0545 98.0534V109.067C72.0553 110.379 72.5752 111.637 73.5001 112.564C74.4249 113.492 75.6791 114.013 76.9871 114.014H87.9695C89.2775 114.013 90.5317 113.492 91.4566 112.564C92.3814 111.637 92.9014 110.379 92.9021 109.067V98.0377C92.8974 96.7286 92.3757 95.4748 91.4513 94.5506C90.5268 93.6264 89.2748 93.1073 87.9695 93.1067ZM92.1154 109.067C92.114 110.169 91.6767 111.226 90.8995 112.005C90.1223 112.785 89.0686 113.223 87.9695 113.225H76.9871C75.888 113.223 74.8343 112.785 74.0572 112.005C73.28 111.226 72.8427 110.169 72.8412 109.067V98.0534C72.8427 96.9512 73.28 95.8945 74.0572 95.1151C74.8343 94.3357 75.888 93.8972 76.9871 93.8957H87.9695C89.066 93.8969 90.1174 94.3332 90.8942 95.1093C91.671 95.8853 92.11 96.9381 92.1154 98.0376V109.067Z" fill="#3F3D56"/>
<path d="M81.1016 113.225V114.014H81.8883V113.225H81.1016ZM81.1016 113.225V114.014H81.8883V113.225H81.1016ZM97.819 99.4854C97.5539 99.441 97.2855 99.4186 97.0166 99.4183H86.0342C84.7263 99.4191 83.4721 99.9405 82.5472 100.868C81.6223 101.796 81.1024 103.053 81.1016 104.365V115.379C81.1002 115.921 81.1892 116.46 81.3652 116.972C81.6972 117.95 82.3259 118.799 83.1632 119.4C84.0005 120.002 85.0044 120.325 86.0342 120.325H97.0166C98.3246 120.325 99.5788 119.803 100.504 118.876C101.429 117.948 101.948 116.69 101.949 115.379V104.365C101.949 103.193 101.534 102.059 100.777 101.165C100.021 100.271 98.9724 99.6761 97.819 99.4854ZM101.163 115.379C101.161 116.481 100.724 117.538 99.9466 118.317C99.1694 119.096 98.1157 119.535 97.0166 119.536H86.0342C84.9351 119.535 83.8815 119.096 83.1044 118.317C82.3272 117.538 81.8899 116.481 81.8883 115.379V104.365C81.8898 103.263 82.3271 102.206 83.1043 101.427C83.8814 100.647 84.9351 100.209 86.0342 100.207H97.0166C98.1161 100.208 99.1703 100.646 99.9478 101.425C100.725 102.205 101.162 103.262 101.163 104.365V115.379ZM81.1016 113.225V114.014H81.8883V113.225H81.1016Z" fill="#3F3D56"/>
<path d="M73.3329 216.06H26.6815C26.3567 216.06 26.0453 216.19 25.8153 216.42C25.5853 216.649 25.4555 216.961 25.4542 217.287V220.06C26.9933 225.972 28.8567 231.794 31.0359 237.5H73.3329C73.4936 237.5 73.6528 237.468 73.8013 237.407C73.9498 237.345 74.0847 237.255 74.1983 237.141C74.3119 237.027 74.402 236.892 74.4635 236.743C74.5249 236.594 74.5564 236.434 74.5562 236.273V217.287C74.5559 216.962 74.4269 216.65 74.1976 216.42C73.9682 216.19 73.6573 216.061 73.3329 216.06Z" fill="#9370DB"/>
<path d="M68.8881 243.658H33.5258C33.9466 244.648 34.3754 245.63 34.8199 246.608H68.8881C70.8076 246.636 70.7879 243.63 68.8881 243.658Z" fill="#E4E4E4"/>
<path d="M68.8881 250.419H36.5939C37.0659 251.409 37.5511 252.393 38.0493 253.37H68.8881C70.8076 253.397 70.788 250.395 68.8881 250.419Z" fill="#E4E4E4"/>
<path d="M68.8881 257.184H40.0358C40.5628 258.174 41.1057 259.157 41.6564 260.135H68.8881C70.8076 260.162 70.788 257.157 68.8881 257.184Z" fill="#E4E4E4"/>
<path d="M310.741 75.3454H310.517C311.214 75.3461 311.902 75.5092 312.526 75.8221H311.506C310.407 75.8234 309.353 76.2618 308.576 77.0412C307.799 77.8206 307.362 78.8774 307.361 79.9797V90.9937C307.362 92.096 307.799 93.1528 308.576 93.9322C309.353 94.7116 310.407 95.1501 311.506 95.1513H312.157C311.634 95.3569 311.078 95.4628 310.517 95.4636H310.741C311.944 95.4622 313.098 94.9822 313.949 94.1288C314.8 93.2754 315.278 92.1184 315.28 90.9115V79.8975C315.278 78.6906 314.8 77.5336 313.949 76.6802C313.098 75.8269 311.944 75.3468 310.741 75.3454Z" fill="#3F3D56"/>
<path opacity="0.21" d="M310.741 75.3454H310.517C311.214 75.3461 311.902 75.5092 312.526 75.8221H311.506C310.407 75.8234 309.353 76.2618 308.576 77.0412C307.799 77.8206 307.362 78.8774 307.361 79.9797V90.9937C307.362 92.096 307.799 93.1528 308.576 93.9322C309.353 94.7116 310.407 95.1501 311.506 95.1513H312.157C311.634 95.3569 311.078 95.4628 310.517 95.4636H310.741C311.944 95.4622 313.098 94.9822 313.949 94.1288C314.8 93.2754 315.278 92.1184 315.28 90.9115V79.8975C315.278 78.6906 314.8 77.5336 313.949 76.6802C313.098 75.8269 311.944 75.3468 310.741 75.3454Z" fill="black"/>
<path d="M281.633 75.3454H281.409C282.106 75.3461 282.794 75.5092 283.418 75.8221H282.398C281.299 75.8234 280.245 76.2618 279.468 77.0412C278.691 77.8206 278.254 78.8774 278.253 79.9797V90.9937C278.254 92.096 278.691 93.1528 279.468 93.9322C280.245 94.7116 281.299 95.1501 282.398 95.1513H283.049C282.526 95.3569 281.97 95.4628 281.409 95.4636H281.633C282.836 95.4622 283.99 94.9822 284.841 94.1288C285.692 93.2754 286.17 92.1184 286.172 90.9115V79.8975C286.17 78.6906 285.692 77.5336 284.841 76.6802C283.99 75.8269 282.836 75.3468 281.633 75.3454Z" fill="#9370DB"/>
<path opacity="0.21" d="M281.633 75.3454H281.409C282.106 75.3461 282.794 75.5092 283.418 75.8221H282.398C281.299 75.8234 280.245 76.2618 279.468 77.0412C278.691 77.8206 278.254 78.8774 278.253 79.9797V90.9937C278.254 92.096 278.691 93.1528 279.468 93.9322C280.245 94.7116 281.299 95.1501 282.398 95.1513H283.049C282.526 95.3569 281.97 95.4628 281.409 95.4636H281.633C282.836 95.4622 283.99 94.9822 284.841 94.1288C285.692 93.2754 286.17 92.1184 286.172 90.9115V79.8975C286.17 78.6906 285.692 77.5336 284.841 76.6802C283.99 75.8269 282.836 75.3468 281.633 75.3454Z" fill="black"/>
<path d="M282.442 95.1856C281.343 95.1844 280.289 94.7459 279.512 93.9665C278.735 93.1871 278.298 92.1303 278.296 91.028V80.014C278.298 78.9117 278.735 77.8549 279.512 77.0755C280.289 76.2961 281.343 75.8576 282.442 75.8564H283.462C282.838 75.5435 282.15 75.3804 281.452 75.3797H270.47C269.266 75.3811 268.113 75.8611 267.262 76.7145C266.411 77.5679 265.932 78.7249 265.931 79.9318V90.9458C265.932 92.1527 266.411 93.3097 267.262 94.1631C268.113 95.0165 269.266 95.4965 270.47 95.4979H281.452C282.014 95.4971 282.57 95.3912 283.093 95.1856L282.442 95.1856Z" fill="#9370DB"/>
<path d="M311.55 95.1856C310.451 95.1844 309.397 94.7459 308.62 93.9665C307.843 93.1871 307.406 92.1303 307.404 91.028V80.014C307.406 78.9117 307.843 77.8549 308.62 77.0755C309.397 76.2961 310.451 75.8576 311.55 75.8564H312.57C311.946 75.5435 311.258 75.3803 310.56 75.3797H299.578C298.374 75.3811 297.221 75.8611 296.37 76.7145C295.519 77.5679 295.04 78.7249 295.039 79.9318V90.9458C295.04 92.1527 295.519 93.3097 296.37 94.1631C297.221 95.0165 298.374 95.4965 299.578 95.4979H310.561C311.122 95.4971 311.678 95.3912 312.201 95.1856L311.55 95.1856Z" fill="#3F3D56"/>
<path d="M324.519 78.1207C328.55 83.6815 332.237 89.4846 335.561 95.4972H328.685C327.481 95.4954 326.328 95.0153 325.477 94.1619C324.626 93.3086 324.147 92.1518 324.146 90.945V79.9313C324.145 79.3085 324.272 78.6922 324.519 78.1207Z" fill="#FF6584"/>
<path d="M310.732 101.276L306.885 95.4972L304.073 91.2724C303.909 91.0256 303.678 90.8306 303.408 90.7098C303.138 90.589 302.839 90.5475 302.547 90.59C302.254 90.6325 301.979 90.7574 301.754 90.95C301.529 91.1427 301.364 91.3954 301.276 91.6787L300.092 95.4972L297.708 103.17C297.614 103.475 297.615 103.803 297.711 104.108C297.808 104.413 297.994 104.681 298.246 104.877C298.499 105.073 298.804 105.187 299.123 105.204C299.441 105.221 299.758 105.14 300.029 104.973L300.875 104.448C301.045 104.343 301.239 104.283 301.439 104.274C301.639 104.265 301.838 104.307 302.016 104.397C302.195 104.487 302.348 104.621 302.461 104.786C302.574 104.952 302.643 105.144 302.661 105.343L303.436 113.824C303.472 114.214 303.652 114.576 303.94 114.84C304.228 115.104 304.603 115.251 304.993 115.252C305.041 115.252 305.088 115.249 305.139 115.245L306.327 115.138C306.532 115.119 306.731 115.06 306.913 114.964C307.095 114.868 307.257 114.737 307.388 114.579C307.52 114.42 307.619 114.237 307.68 114.04C307.741 113.843 307.762 113.635 307.743 113.43L306.944 104.673C306.925 104.467 306.961 104.26 307.047 104.072C307.133 103.885 307.267 103.723 307.436 103.604C307.604 103.485 307.801 103.412 308.006 103.393C308.211 103.375 308.417 103.41 308.604 103.497L308.777 103.576C309.087 103.719 309.435 103.757 309.769 103.683C310.102 103.61 310.402 103.429 310.623 103.169C310.845 102.908 310.975 102.582 310.995 102.241C311.014 101.899 310.922 101.561 310.732 101.276Z" fill="#CCCCCC"/>
</g>
<defs>
<clipPath id="clip0_313_91">
<rect width="355" height="346" fill="white"/>
</clipPath>
</defs>
</svg>
